<svg xmlns="http://www.w3.org/2000/svg" width="62" height="30" viewBox="0 0 62 30" fill="none">
  <path d="M39.101 28.9834C38.9985 28.9834 38.9104 28.9465 38.8368 28.8729C38.7631 28.7992 38.7263 28.7112 38.7263 28.6087C38.7263 28.5062 38.7631 28.4182 38.8368 28.3445C38.9104 28.2709 38.9985 28.2341 39.101 28.2341C39.2066 28.2341 39.2947 28.2709 39.3652 28.3445C39.4388 28.4182 39.4756 28.5062 39.4756 28.6087C39.4756 28.7112 39.4388 28.7992 39.3652 28.8729C39.2947 28.9465 39.2066 28.9834 39.101 28.9834Z" fill="white"/>
  <path d="M40.9887 28.9546C40.7997 28.9546 40.6204 28.9225 40.4507 28.8585C40.281 28.7912 40.1337 28.7144 40.0088 28.6279V28.0323C40.1433 28.1284 40.297 28.2116 40.4699 28.2821C40.646 28.3525 40.8318 28.3878 41.0271 28.3878C41.168 28.3878 41.2849 28.3557 41.3777 28.2917C41.4738 28.2277 41.5218 28.1396 41.5218 28.0275C41.5218 27.9667 41.5026 27.9138 41.4642 27.869C41.4258 27.821 41.3761 27.7794 41.3153 27.7441C41.2576 27.7089 41.1968 27.6801 41.1328 27.6577L40.6284 27.4559C40.4651 27.3887 40.337 27.3118 40.2442 27.2254C40.1545 27.1357 40.0904 27.0364 40.052 26.9276C40.0168 26.8187 39.9992 26.7034 39.9992 26.5817C39.9992 26.3896 40.0504 26.2215 40.1529 26.0774C40.2586 25.9333 40.3979 25.8212 40.5708 25.7412C40.7437 25.6611 40.9278 25.6211 41.1232 25.6211C41.3121 25.6211 41.4802 25.6467 41.6275 25.6979C41.778 25.7492 41.9029 25.8084 42.0022 25.8757V26.4713C41.8933 26.4008 41.77 26.3368 41.6323 26.2791C41.4946 26.2183 41.3441 26.1879 41.1808 26.1879C41.0975 26.1879 41.0143 26.2023 40.931 26.2311C40.8478 26.2599 40.7789 26.3047 40.7245 26.3656C40.6732 26.4232 40.6476 26.4969 40.6476 26.5865C40.6476 26.6954 40.6941 26.7787 40.7869 26.8363C40.8798 26.8939 40.9919 26.9516 41.1232 27.0092L41.517 27.1821C41.7444 27.2782 41.9125 27.3903 42.0214 27.5184C42.1302 27.6465 42.1847 27.805 42.1847 27.9939C42.1847 28.1828 42.1302 28.3493 42.0214 28.4934C41.9125 28.6343 41.7668 28.7464 41.5843 28.8297C41.4049 28.9129 41.2064 28.9546 40.9887 28.9546Z" fill="white"/>
  <path d="M43.7553 28.969C43.6145 28.969 43.4864 28.9385 43.3711 28.8777C43.259 28.8137 43.1693 28.7256 43.1021 28.6135C43.0381 28.4982 43.006 28.3637 43.006 28.21V26.9564H42.593V26.6874C42.7499 26.6266 42.8796 26.5225 42.982 26.3752C43.0845 26.2247 43.1742 26.0374 43.251 25.8132H43.5728V26.4761H44.3173V26.9564H43.5728V28.0756C43.5728 28.1844 43.6016 28.2693 43.6593 28.3301C43.7201 28.391 43.8034 28.4214 43.9091 28.4214C44.0051 28.4214 44.0884 28.4086 44.1588 28.383C44.2325 28.3541 44.2965 28.3237 44.351 28.2917V28.7768C44.2933 28.8345 44.2133 28.8809 44.1108 28.9161C44.0115 28.9513 43.893 28.969 43.7553 28.969Z" fill="white"/>
  <path d="M46.0177 28.9546C45.8095 28.9546 45.6238 28.9129 45.4605 28.8297C45.3004 28.7464 45.1723 28.6279 45.0762 28.4742C44.9834 28.3173 44.937 28.1316 44.937 27.917V26.4761H45.5133V27.8306C45.5133 28.0195 45.5614 28.1636 45.6574 28.2629C45.7535 28.3589 45.8736 28.407 46.0177 28.407C46.1618 28.407 46.2803 28.3589 46.3731 28.2629C46.4692 28.1636 46.5172 28.0195 46.5172 27.8306V26.4761H47.0984V27.917C47.0984 28.1316 47.0504 28.3173 46.9543 28.4742C46.8615 28.6279 46.7334 28.7464 46.5701 28.8297C46.4068 28.9129 46.2226 28.9546 46.0177 28.9546Z" fill="white"/>
  <path d="M48.7315 28.969C48.5362 28.969 48.3553 28.9193 48.1888 28.8201C48.0223 28.7208 47.8878 28.5767 47.7853 28.3878C47.686 28.1988 47.6364 27.9715 47.6364 27.7057C47.6364 27.4367 47.686 27.2062 47.7853 27.014C47.8878 26.8219 48.0255 26.6746 48.1984 26.5721C48.3713 26.4697 48.5634 26.4184 48.7748 26.4184C48.9061 26.4184 49.039 26.4504 49.1734 26.5145C49.3111 26.5753 49.4264 26.657 49.5193 26.7595V25.4386H50.0861V28.8969H49.5193V28.4886C49.4456 28.6199 49.34 28.7336 49.2023 28.8297C49.0678 28.9225 48.9109 28.969 48.7315 28.969ZM48.866 28.4022C48.9813 28.4022 49.0886 28.3718 49.1879 28.3109C49.2871 28.2501 49.3672 28.1652 49.428 28.0563C49.4889 27.9443 49.5193 27.813 49.5193 27.6625L49.5145 27.2926C49.428 27.1934 49.332 27.1165 49.2263 27.0621C49.1238 27.0044 49.0101 26.9756 48.8852 26.9756C48.7508 26.9756 48.6339 27.0108 48.5346 27.0813C48.4353 27.1485 48.3585 27.2382 48.3041 27.3503C48.2528 27.4591 48.2272 27.5776 48.2272 27.7057C48.2272 27.8338 48.2528 27.9507 48.3041 28.0563C48.3585 28.162 48.4337 28.2469 48.5298 28.3109C48.6259 28.3718 48.7379 28.4022 48.866 28.4022Z" fill="white"/>
  <path d="M51.3205 26.0246C51.2116 26.0246 51.1172 25.9861 51.0371 25.9093C50.9603 25.8292 50.9218 25.7364 50.9218 25.6307C50.9218 25.5218 50.9603 25.4289 51.0371 25.3521C51.1172 25.2752 51.2116 25.2368 51.3205 25.2368C51.3942 25.2368 51.4614 25.2544 51.5222 25.2897C51.5831 25.3249 51.6311 25.3729 51.6663 25.4338C51.7048 25.4946 51.724 25.5602 51.724 25.6307C51.724 25.6979 51.7048 25.7636 51.6663 25.8276C51.6311 25.8885 51.5831 25.9365 51.5222 25.9717C51.4614 26.0069 51.3942 26.0246 51.3205 26.0246ZM51.0996 28.8969V26.4761H51.6663V28.8969H51.0996ZM50.7105 26.966V26.4761H51.6663V26.966H50.7105Z" fill="white"/>
  <path d="M53.5588 28.969C53.3795 28.969 53.2114 28.9369 53.0545 28.8729C52.9008 28.8057 52.7647 28.7144 52.6462 28.5991C52.5277 28.4838 52.4349 28.3493 52.3676 28.1956C52.3004 28.0387 52.2668 27.8722 52.2668 27.6961C52.2668 27.5168 52.3004 27.3503 52.3676 27.1966C52.4349 27.0428 52.5277 26.9084 52.6462 26.7931C52.7647 26.6746 52.9008 26.5833 53.0545 26.5193C53.2114 26.452 53.3795 26.4184 53.5588 26.4184C53.735 26.4184 53.8999 26.452 54.0536 26.5193C54.2105 26.5833 54.3482 26.6746 54.4667 26.7931C54.5883 26.9084 54.6812 27.0428 54.7452 27.1966C54.8125 27.3503 54.8461 27.5168 54.8461 27.6961C54.8461 27.8722 54.8125 28.0387 54.7452 28.1956C54.6812 28.3493 54.5883 28.4838 54.4667 28.5991C54.3482 28.7144 54.2105 28.8057 54.0536 28.8729C53.8999 28.9369 53.735 28.969 53.5588 28.969ZM53.5588 28.4214C53.6869 28.4214 53.8022 28.3926 53.9047 28.3349C54.0103 28.2741 54.0936 28.1892 54.1544 28.0804C54.2153 27.9715 54.2457 27.8434 54.2457 27.6961C54.2457 27.5456 54.2153 27.4159 54.1544 27.307C54.0936 27.1982 54.0103 27.1149 53.9047 27.0573C53.8022 26.9964 53.6869 26.966 53.5588 26.966C53.4339 26.966 53.3187 26.9964 53.213 27.0573C53.1073 27.1149 53.0225 27.1982 52.9584 27.307C52.8976 27.4159 52.8672 27.5456 52.8672 27.6961C52.8672 27.8434 52.8976 27.9715 52.9584 28.0804C53.0225 28.1892 53.1073 28.2741 53.213 28.3349C53.3187 28.3926 53.4339 28.4214 53.5588 28.4214Z" fill="white"/>
  <path d="M0 11.3502V21.8247H2.1624H4.32481V17.621C4.32481 13.0983 4.37887 12.5989 5.0411 11.5722C5.23031 11.2809 5.67631 10.8924 6.09527 10.6566C6.71696 10.3097 6.97375 10.2542 7.83871 10.2404C8.71719 10.2404 8.94694 10.2959 9.51457 10.6427C10.0281 10.9479 10.2309 11.1976 10.5282 11.8219L10.8796 12.5989L10.9201 17.2187L10.9742 21.8247H13.069H15.1503L15.1098 16.4418C15.0557 11.3086 15.0422 11.0312 14.7584 10.2404C14.407 9.24148 13.6637 8.20096 12.8798 7.59053C10.8526 5.99508 6.81157 6.06445 4.91947 7.71539C4.6762 7.9235 4.44644 8.08998 4.4059 8.08998C4.36535 8.08998 4.32481 6.46678 4.32481 4.48288V0.875776H2.1624H0V11.3502Z" fill="white"/>
  <path d="M32.1318 14.8184L32.1318 23.3506H34.2942H36.4566V17.9399L37.4973 16.9272L38.538 15.9005L40.8355 18.8556L43.1466 21.8106H45.755L48.3769 21.8245L47.7011 20.9505C43.944 16.067 41.7275 13.1397 41.7275 13.0703C41.7275 13.0149 42.9168 11.7385 44.3629 10.2263L46.9848 7.46547L46.9984 11.2113C46.9984 15.4288 47.1335 17.1491 47.539 18.259C48.0931 19.7712 49.1878 20.9505 50.6474 21.5609C51.2961 21.8384 51.6205 21.88 53.2153 21.8939C55.3101 21.8939 55.9858 21.6996 57.2427 20.7146L57.9455 20.1597V20.9921V21.8245H59.9728H62V14.1941V6.56369H59.9052H57.8104V10.6564C57.8104 15.082 57.7293 15.7618 57.1346 16.7329C56.1345 18.37 53.4585 18.7307 52.2287 17.4127C51.4178 16.5526 51.3907 16.3584 51.3502 11.239L51.3096 6.56369H47.0254L42.7411 6.57757L39.6327 9.60198L36.5242 12.6264L36.4837 6.74405L36.4566 0.875572H34.2942H32.1318V14.8184Z" fill="white"/>
  <path d="M20.8535 7.32692C20.3265 7.42403 19.5696 7.61826 19.1642 7.74312C18.2992 8.03446 16.8936 8.76976 16.8936 8.95011C16.8936 9.11659 18.2316 11.8358 18.3127 11.8358C18.3533 11.8358 18.7452 11.6416 19.1912 11.4196C20.2994 10.8508 21.3536 10.5872 22.57 10.5872C23.8539 10.5872 24.4756 10.7675 25.0838 11.3086C25.6649 11.8358 25.9217 12.3214 25.9757 13.0289L26.0163 13.57L23.1781 13.6532C19.9886 13.7503 19.0966 13.9446 17.8802 14.7908C16.9477 15.4568 16.3395 16.6915 16.3395 17.9679C16.326 19.7714 17.0829 21.1033 18.6101 21.9218C19.7048 22.5184 20.6779 22.7126 22.2591 22.6293C23.8539 22.5461 25.0027 22.1022 25.746 21.2559C26.0028 20.9507 26.246 20.7148 26.2866 20.7148C26.3271 20.7148 26.3542 21.3946 26.3542 22.2409C26.3542 23.9889 26.5163 24.9185 27.0029 25.9729C27.6246 27.3463 28.9761 28.4007 30.7465 28.914C31.6115 29.1637 35.3687 29.1776 36.1931 28.9279L36.7607 28.7475V27.0411V25.3208L35.7876 25.5844C34.4091 25.959 33.0846 25.9312 32.2332 25.515C31.4088 25.1266 31.0574 24.7381 30.6519 23.8363C30.3546 23.1565 30.3411 23.0178 30.2735 17.5239C30.2059 12.585 30.1654 11.8219 29.9492 11.2115C29.1923 9.04723 27.7732 7.84023 25.3811 7.34079C24.1512 7.07719 22.2051 7.07719 20.8535 7.32692ZM26.0839 16.9274C26.0839 18.5783 24.9891 19.6049 23.097 19.7159C22.2321 19.7714 21.9483 19.7298 21.4617 19.4801C20.0832 18.8003 20.0426 17.0383 21.3942 16.4002C21.8672 16.1782 22.2861 16.1366 24.0296 16.1366H26.0839V16.9274Z" fill="url(#paint0_linear_46_16)"/>
  <defs>
    <linearGradient id="paint0_linear_46_16" x1="26.55" y1="29.1084" x2="26.55" y2="7.14132" gradientUnits="userSpaceOnUse">
      <stop stop-color="#FED315"/>
      <stop offset="1" stop-color="#FB4805"/>
    </linearGradient>
  </defs>
</svg>
