<svg width="302" height="342" viewBox="0 0 302 342" fill="none" xmlns="http://www.w3.org/2000/svg">
<rect width="535" height="342" fill="#E3F805"/>
<path d="M126.269 150.619C134.269 172.619 146.269 214.5 146.269 227.619C146.269 236.982 136 240.5 133 240C129.5 240 123.869 236.019 122.269 227.619C120.669 219.219 126.602 198.785 129.769 189.619C134.102 178.119 147.669 151.919 167.269 139.119C186.869 126.319 201.269 136.119 205.269 145.619C209.269 155.118 204.169 171.619 191.769 183.619C179.369 195.619 170.269 190.285 167.269 186.119C164.093 180.619 166.869 167.919 181.269 161.119C195.669 154.319 215.269 151.285 223.269 150.619" stroke="#0C9A3B" stroke-width="10"/>
<path d="M244.622 208V168H256.133C258.889 168 261.215 168.415 263.111 169.244C265.037 170.044 266.578 171.126 267.733 172.489C268.919 173.822 269.778 175.274 270.311 176.844C270.844 178.385 271.111 179.926 271.111 181.467C271.111 182.948 270.844 184.474 270.311 186.044C269.807 187.585 268.963 189.037 267.778 190.4C266.593 191.733 265.052 192.815 263.156 193.644C261.259 194.444 258.919 194.844 256.133 194.844H251.644V208H244.622ZM251.644 188.533H255.733C257.778 188.533 259.378 188.178 260.533 187.467C261.719 186.756 262.563 185.867 263.067 184.8C263.6 183.704 263.867 182.578 263.867 181.422C263.867 180.326 263.615 179.23 263.111 178.133C262.637 177.037 261.807 176.133 260.622 175.422C259.437 174.681 257.807 174.311 255.733 174.311H251.644V188.533ZM287.226 208.8C284.292 208.8 281.685 208.178 279.403 206.933C277.151 205.689 275.388 203.985 274.114 201.822C272.87 199.63 272.248 197.156 272.248 194.4C272.248 191.763 272.855 189.407 274.07 187.333C275.314 185.23 276.988 183.57 279.092 182.356C281.196 181.141 283.522 180.533 286.07 180.533C288.677 180.533 291.003 181.141 293.048 182.356C295.122 183.541 296.766 185.156 297.981 187.2C299.196 189.244 299.803 191.57 299.803 194.178V196.711H283.226C282.485 196.711 281.759 196.667 281.048 196.578C280.337 196.489 279.626 196.385 278.914 196.267C279.27 198.193 280.203 199.778 281.714 201.022C283.226 202.267 285.122 202.889 287.403 202.889C289.092 202.889 290.618 202.533 291.981 201.822C293.344 201.111 294.47 200.222 295.359 199.156L296.959 205.689C295.626 206.726 294.129 207.496 292.47 208C290.811 208.533 289.063 208.8 287.226 208.8ZM278.737 191.956C280.248 191.659 281.744 191.511 283.226 191.511H288.959C289.759 191.511 290.514 191.541 291.226 191.6C291.937 191.659 292.618 191.748 293.27 191.867C292.826 190.148 291.951 188.77 290.648 187.733C289.374 186.696 287.833 186.178 286.026 186.178C284.248 186.178 282.707 186.711 281.403 187.778C280.1 188.844 279.211 190.237 278.737 191.956ZM299.705 208L308.95 194.044L300.55 181.333H308.327L310.905 185.422C311.29 186.015 311.661 186.637 312.016 187.289C312.401 187.941 312.757 188.622 313.083 189.333C313.439 188.622 313.794 187.956 314.15 187.333C314.535 186.681 314.92 186.044 315.305 185.422L317.839 181.333H325.527L317.083 194.044L326.372 208H318.505L314.861 202.178C314.535 201.644 314.194 201.096 313.839 200.533C313.513 199.97 313.216 199.407 312.95 198.844C312.653 199.407 312.342 199.97 312.016 200.533C311.69 201.096 311.364 201.644 311.039 202.178L307.394 208H299.705ZM341.576 208.8C338.643 208.8 336.036 208.178 333.754 206.933C331.502 205.689 329.739 203.985 328.465 201.822C327.221 199.63 326.599 197.156 326.599 194.4C326.599 191.763 327.206 189.407 328.421 187.333C329.665 185.23 331.339 183.57 333.443 182.356C335.547 181.141 337.873 180.533 340.421 180.533C343.028 180.533 345.354 181.141 347.399 182.356C349.473 183.541 351.117 185.156 352.332 187.2C353.547 189.244 354.154 191.57 354.154 194.178V196.711H337.576C336.836 196.711 336.11 196.667 335.399 196.578C334.688 196.489 333.976 196.385 333.265 196.267C333.621 198.193 334.554 199.778 336.065 201.022C337.576 202.267 339.473 202.889 341.754 202.889C343.443 202.889 344.969 202.533 346.332 201.822C347.695 201.111 348.821 200.222 349.71 199.156L351.31 205.689C349.976 206.726 348.48 207.496 346.821 208C345.162 208.533 343.414 208.8 341.576 208.8ZM333.088 191.956C334.599 191.659 336.095 191.511 337.576 191.511H343.31C344.11 191.511 344.865 191.541 345.576 191.6C346.288 191.659 346.969 191.748 347.621 191.867C347.176 190.148 346.302 188.77 344.999 187.733C343.725 186.696 342.184 186.178 340.376 186.178C338.599 186.178 337.058 186.711 335.754 187.778C334.451 188.844 333.562 190.237 333.088 191.956ZM358.473 208V165.333H365.451V208H358.473Z" fill="#0C9A3B"/>
</svg>
