<svg width="404" height="187" viewBox="0 0 404 187" fill="none" xmlns="http://www.w3.org/2000/svg">
<path d="M258.941 189.346C258.222 189.346 257.605 189.088 257.088 188.571C256.572 188.055 256.313 187.437 256.313 186.718C256.313 186 256.572 185.382 257.088 184.866C257.605 184.349 258.222 184.091 258.941 184.091C259.682 184.091 260.3 184.349 260.794 184.866C261.311 185.382 261.569 186 261.569 186.718C261.569 187.437 261.311 188.055 260.794 188.571C260.3 189.088 259.682 189.346 258.941 189.346Z" fill="#A4A4A4"/>
<path d="M272.181 189.144C270.856 189.144 269.598 188.919 268.408 188.47C267.217 187.999 266.184 187.46 265.308 186.853V182.676C266.252 183.349 267.33 183.933 268.543 184.428C269.778 184.922 271.08 185.169 272.451 185.169C273.439 185.169 274.259 184.944 274.91 184.495C275.584 184.046 275.921 183.428 275.921 182.642C275.921 182.215 275.786 181.845 275.516 181.53C275.247 181.193 274.899 180.901 274.472 180.654C274.068 180.407 273.641 180.205 273.192 180.048L269.654 178.633C268.509 178.161 267.61 177.622 266.959 177.016C266.33 176.387 265.881 175.691 265.612 174.927C265.364 174.163 265.241 173.355 265.241 172.501C265.241 171.154 265.6 169.975 266.319 168.964C267.06 167.953 268.037 167.167 269.25 166.606C270.463 166.044 271.754 165.764 273.124 165.764C274.449 165.764 275.629 165.943 276.662 166.303C277.717 166.662 278.593 167.077 279.29 167.549V171.727C278.526 171.232 277.661 170.783 276.695 170.379C275.73 169.952 274.674 169.739 273.529 169.739C272.945 169.739 272.361 169.84 271.777 170.042C271.193 170.244 270.71 170.559 270.328 170.985C269.969 171.39 269.789 171.906 269.789 172.535C269.789 173.299 270.115 173.883 270.766 174.287C271.417 174.691 272.203 175.096 273.124 175.5L275.887 176.713C277.482 177.386 278.661 178.173 279.424 179.071C280.188 179.969 280.57 181.081 280.57 182.406C280.57 183.731 280.188 184.899 279.424 185.91C278.661 186.898 277.639 187.684 276.359 188.268C275.101 188.852 273.708 189.144 272.181 189.144Z" fill="#A4A4A4"/>
<path d="M291.586 189.245C290.598 189.245 289.7 189.032 288.891 188.605C288.105 188.156 287.476 187.538 287.004 186.752C286.555 185.944 286.331 185 286.331 183.922V175.129H283.433V173.243C284.534 172.816 285.443 172.086 286.162 171.053C286.881 169.997 287.51 168.683 288.049 167.111H290.306V171.76H295.528V175.129H290.306V182.979C290.306 183.743 290.508 184.338 290.912 184.764C291.339 185.191 291.923 185.405 292.664 185.405C293.338 185.405 293.922 185.315 294.416 185.135C294.933 184.933 295.382 184.72 295.764 184.495V187.898C295.359 188.302 294.798 188.628 294.079 188.875C293.383 189.122 292.552 189.245 291.586 189.245Z" fill="#A4A4A4"/>
<path d="M307.454 189.144C305.994 189.144 304.691 188.852 303.546 188.268C302.423 187.684 301.525 186.853 300.851 185.775C300.199 184.675 299.874 183.372 299.874 181.867V171.76H303.917V181.261C303.917 182.586 304.253 183.597 304.927 184.293C305.601 184.967 306.443 185.303 307.454 185.303C308.465 185.303 309.296 184.967 309.947 184.293C310.621 183.597 310.958 182.586 310.958 181.261V171.76H315.034V181.867C315.034 183.372 314.697 184.675 314.023 185.775C313.372 186.853 312.474 187.684 311.328 188.268C310.183 188.852 308.891 189.144 307.454 189.144Z" fill="#A4A4A4"/>
<path d="M326.489 189.245C325.119 189.245 323.85 188.897 322.682 188.201C321.514 187.505 320.57 186.494 319.852 185.169C319.155 183.844 318.807 182.249 318.807 180.385C318.807 178.498 319.155 176.881 319.852 175.533C320.57 174.186 321.536 173.153 322.749 172.434C323.962 171.715 325.309 171.356 326.792 171.356C327.713 171.356 328.645 171.581 329.588 172.03C330.554 172.457 331.362 173.029 332.014 173.748V164.483H335.989V188.74H332.014V185.876C331.497 186.797 330.756 187.594 329.79 188.268C328.847 188.919 327.746 189.245 326.489 189.245ZM327.432 185.27C328.24 185.27 328.993 185.056 329.689 184.63C330.385 184.203 330.947 183.608 331.374 182.844C331.8 182.058 332.014 181.137 332.014 180.082L331.98 177.487C331.374 176.791 330.7 176.252 329.959 175.87C329.24 175.466 328.443 175.264 327.567 175.264C326.623 175.264 325.804 175.511 325.107 176.005C324.411 176.477 323.872 177.106 323.49 177.892C323.131 178.655 322.951 179.486 322.951 180.385C322.951 181.283 323.131 182.103 323.49 182.844C323.872 183.585 324.4 184.18 325.074 184.63C325.747 185.056 326.534 185.27 327.432 185.27Z" fill="#A4A4A4"/>
<path d="M344.647 168.593C343.884 168.593 343.221 168.324 342.66 167.785C342.121 167.223 341.851 166.572 341.851 165.831C341.851 165.067 342.121 164.416 342.66 163.877C343.221 163.338 343.884 163.068 344.647 163.068C345.164 163.068 345.635 163.192 346.062 163.439C346.489 163.686 346.826 164.023 347.073 164.45C347.342 164.876 347.477 165.337 347.477 165.831C347.477 166.303 347.342 166.763 347.073 167.212C346.826 167.639 346.489 167.976 346.062 168.223C345.635 168.47 345.164 168.593 344.647 168.593ZM343.098 188.74V171.76H347.073V188.74H343.098ZM340.369 175.197V171.76H347.073V175.197H340.369Z" fill="#A4A4A4"/>
<path d="M360.347 189.245C359.089 189.245 357.91 189.021 356.809 188.571C355.731 188.1 354.777 187.46 353.946 186.651C353.115 185.843 352.463 184.899 351.992 183.821C351.52 182.721 351.284 181.553 351.284 180.317C351.284 179.06 351.52 177.892 351.992 176.814C352.463 175.736 353.115 174.792 353.946 173.984C354.777 173.153 355.731 172.513 356.809 172.063C357.91 171.592 359.089 171.356 360.347 171.356C361.582 171.356 362.739 171.592 363.817 172.063C364.917 172.513 365.883 173.153 366.714 173.984C367.567 174.792 368.219 175.736 368.668 176.814C369.14 177.892 369.375 179.06 369.375 180.317C369.375 181.553 369.14 182.721 368.668 183.821C368.219 184.899 367.567 185.843 366.714 186.651C365.883 187.46 364.917 188.1 363.817 188.571C362.739 189.021 361.582 189.245 360.347 189.245ZM360.347 185.405C361.245 185.405 362.054 185.202 362.772 184.798C363.513 184.371 364.097 183.776 364.524 183.013C364.951 182.249 365.164 181.351 365.164 180.317C365.164 179.262 364.951 178.352 364.524 177.589C364.097 176.825 363.513 176.241 362.772 175.837C362.054 175.41 361.245 175.197 360.347 175.197C359.471 175.197 358.662 175.41 357.921 175.837C357.18 176.241 356.585 176.825 356.135 177.589C355.709 178.352 355.495 179.262 355.495 180.317C355.495 181.351 355.709 182.249 356.135 183.013C356.585 183.776 357.18 184.371 357.921 184.798C358.662 185.202 359.471 185.405 360.347 185.405Z" fill="#A4A4A4"/>
<path d="M-15.3081 71.6659V143.234H-0.141289H15.0255V114.512C15.0255 83.6098 15.4047 80.1973 20.0495 73.1826C21.3766 71.192 24.5048 68.5378 27.4434 66.9263C31.8038 64.5565 33.6049 64.1773 39.6716 64.0825C45.8331 64.0825 47.4446 64.4617 51.4259 66.8315C55.028 68.917 56.4499 70.6232 58.5353 74.8889L60.9999 80.1973L61.2843 111.763L61.6635 143.234H76.3563H90.9544L90.67 106.455C90.2909 71.3816 90.1961 69.4857 88.2054 64.0825C85.7408 57.2575 80.5272 50.148 75.0292 45.9771C60.8104 35.076 32.4674 35.55 19.1964 46.8303C17.4901 48.2522 15.8787 49.3897 15.5943 49.3897C15.3099 49.3897 15.0255 38.2989 15.0255 24.7436V0.0975189H-0.141289H-15.3081V71.6659Z" fill="#A4A4A4"/>
<path d="M210.061 95.3656L210.061 153.663H225.227H240.394V116.694L247.693 109.774L254.992 102.759L271.107 122.95L287.317 143.141H305.611L324.001 143.236L319.262 137.264C292.909 103.897 277.363 83.8957 277.363 83.4218C277.363 83.0426 285.705 74.3217 295.848 63.9893L314.238 45.1255L314.332 70.7195C314.332 99.5365 315.28 111.291 318.124 118.874C322.011 129.207 329.689 137.264 339.926 141.435C344.476 143.331 346.751 143.615 357.937 143.71C372.63 143.71 377.37 142.383 386.185 135.652L391.114 131.861V137.548V143.236H405.333H419.552V91.1V38.964H404.859H390.166V66.9278C390.166 97.1667 389.598 101.812 385.427 108.447C378.412 119.633 359.643 122.097 351.017 113.092C345.33 107.215 345.14 105.888 344.856 70.9091L344.571 38.964H314.522L284.473 39.0588L262.67 59.7236L240.868 80.3884L240.584 40.1963L240.394 0.0990448H225.227H210.061V95.3656Z" fill="#A4A4A4"/>
<path d="M130.957 44.1736C127.26 44.8372 121.952 46.1643 119.108 47.0174C113.041 49.0081 103.183 54.0321 103.183 55.2644C103.183 56.4019 112.567 74.9812 113.136 74.9812C113.42 74.9812 116.169 73.6541 119.297 72.1375C127.07 68.251 134.464 66.4499 142.996 66.4499C152.001 66.4499 156.361 67.6822 160.627 71.3791C164.703 74.9812 166.504 78.299 166.883 83.1334L167.168 86.8303L147.261 87.3991C124.89 88.0626 118.634 89.3897 110.103 95.1721C103.562 99.7221 99.2962 108.159 99.2962 116.88C99.2014 129.203 104.51 138.303 115.221 143.895C122.9 147.972 129.725 149.299 140.815 148.73C152.001 148.161 160.058 145.128 165.272 139.345C167.073 137.26 168.779 135.649 169.064 135.649C169.348 135.649 169.537 140.293 169.537 146.076C169.537 158.02 170.675 164.371 174.088 171.575C178.448 180.959 187.927 188.164 200.345 191.671C206.412 193.377 232.764 193.472 238.547 191.766L242.528 190.533V178.874V167.12L235.703 168.921C226.034 171.48 216.744 171.291 210.772 168.447C204.99 165.793 202.525 163.138 199.682 156.977C197.596 152.332 197.501 151.384 197.027 113.846C196.553 80.1 196.269 74.8864 194.752 70.7156C189.444 55.9279 179.491 47.681 162.712 44.2684C154.086 42.4674 140.436 42.4674 130.957 44.1736ZM167.642 109.77C167.642 121.05 159.963 128.065 146.692 128.823C140.626 129.203 138.635 128.918 135.223 127.212C125.554 122.567 125.269 110.528 134.749 106.168C138.066 104.651 141.005 104.367 153.233 104.367H167.642V109.77Z" fill="#A4A4A4"/>
</svg>
